<svg width="120" height="120" xmlns="http://www.w3.org/2000/svg"><defs><linearGradient x1="27.532%" y1="23.676%" x2="55.538%" y2="101.285%" id="prefix__a"><stop stop-color="#FF9373" offset="39%"/><stop stop-color="#FE8F73" offset="51%"/><stop stop-color="#FB8373" offset="62%"/><stop stop-color="#F77073" offset="73%"/><stop stop-color="#F15472" offset="83%"/><stop stop-color="#E93172" offset="94%"/><stop stop-color="#E41A72" offset="100%"/></linearGradient><linearGradient x1="100.029%" y1="49.988%" x2="8.648%" y2="49.988%" id="prefix__b"><stop stop-color="#FF9373" offset="9%"/><stop stop-color="#FD8A73" offset="15%"/><stop stop-color="#F04E72" offset="55%"/><stop stop-color="#E72872" offset="85%"/><stop stop-color="#E41A72" offset="100%"/></linearGradient><linearGradient x1="89.198%" y1="49.996%" x2="28.401%" y2="49.996%" id="prefix__c"><stop stop-color="#FF9373" offset="0%"/><stop stop-color="#E41A72" offset="100%"/></linearGradient></defs><g fill="none" fill-rule="evenodd"><circle fill="#FFF" cx="60" cy="60" r="60"/><g fill-rule="nonzero"><path d="M60.177 56.005a44.443 44.443 0 00-12.684-1.776 43.048 43.048 0 00-20.209 4.984l4.032-6.827 3.577-6.063 9.66-16.468 9.094 15.158L38.67 20.008 22.549 47.493 6.427 75.383h11.66a40.49 40.49 0 0126.417-10.192c10.683-.042 20.341 3.838 27.284 10.18L60.177 56.005z" fill="url(#prefix__a)" transform="translate(15 22)"/><path d="M38.956.042L19.475 33.056 0 66.088l3.213 4.45 3.214 4.851L22.549 47.5l16.122-27.49 14.945 25.016a47.717 47.717 0 00-6.433-.412c-4.153.01-8.286.577-12.29 1.685l-3.577 6.063-4.032 6.852a43.048 43.048 0 0120.184-4.984 44.443 44.443 0 0112.685 1.776l11.586 19.366h12.327L38.956.042z" fill="url(#prefix__b)" transform="translate(15 22)"/><path fill="url(#prefix__c)" d="M38.956.042L84.09 75.371l5.717-9.64L50.288 0z" transform="translate(15 22)"/></g></g></svg>
