<svg xmlns="http://www.w3.org/2000/svg" width="140" height="140"><g fill="none" fill-rule="evenodd"><rect width="140" height="140" fill="#FFF" rx="70"/><g fill-rule="nonzero"><path fill="#EA754B" d="M76.191 53.579L63.757 41.144a.627.627 0 00-.871 0l-4.928 4.929a.644.644 0 000 .87l12.286 12.339a7.767 7.767 0 010 10.98 7.619 7.619 0 01-10.64-.078L41.7 52.238a7.628 7.628 0 01-.087-10.676 7.75 7.75 0 0110.971 0l1.785 1.785a.627.627 0 00.87 0l4.938-4.928a.644.644 0 000-.871l-1.933-1.907a15.848 15.848 0 00-22.413 0c-6.181 6.196-6.181 16.226 0 22.422L53.76 76a15.848 15.848 0 0022.413 0c6.195-6.187 6.203-16.225.017-22.421z"/><path fill="#34C69A" d="M104.934 35.641a15.839 15.839 0 00-22.404 0L70.435 47.78l5.8 5.8 12.12-12.13A7.61 7.61 0 0199.11 52.211l-1.907 1.907a.627.627 0 000 .871l4.929 4.937a.644.644 0 00.87 0l1.907-1.915c6.163-6.18 6.175-16.177.026-22.37z"/><path fill="#34C69A" d="M94.512 57.732a.644.644 0 00-.871 0L81.18 70.184a7.602 7.602 0 01-10.746 0 7.619 7.619 0 010-10.702l-5.868-5.843a15.874 15.874 0 00-3.109 17.92 15.822 15.822 0 0014.341 9.074c4.194 0 8.216-1.666 11.18-4.633L99.44 63.566a.644.644 0 000-.87l-4.928-4.964z"/><path fill="#F6C94A" d="M104.934 82.374l-12.13-12.19-5.824 5.842 12.13 12.139a7.61 7.61 0 01.06 10.666 7.75 7.75 0 01-10.963 0l-1.793-1.793a.644.644 0 00-.871 0l-4.929 4.928a.627.627 0 000 .87l1.742 1.742c6.245 6.27 16.38 6.325 22.692.122 6.105-6.21 6.066-16.18-.087-22.343l-.027.017z"/><path fill="#F6C94A" d="M82.852 94.32a.627.627 0 000-.87L70.435 80.99a7.576 7.576 0 010-10.763 7.602 7.602 0 0110.702 0l5.843-5.86a15.856 15.856 0 00-17.92-3.108A15.856 15.856 0 0064.6 86.815l12.426 12.434a.627.627 0 00.87 0l4.955-4.928z"/><path fill="#46AEE2" d="M79.9 70.227a13.584 13.584 0 00-.566-1.384 15.9 15.9 0 00-7.593-7.61 13.13 13.13 0 00-1.34-.558 15.83 15.83 0 00-16.545 3.666l5.782 5.843a7.619 7.619 0 0110.728 0 7.602 7.602 0 011.297 8.942 7.175 7.175 0 01-1.297 1.742l5.834 5.834a15.848 15.848 0 003.7-16.475zM47.16 82.653L53.813 76l-5.826-5.816-6.652 6.652a.644.644 0 000 .87l4.928 4.938a.644.644 0 00.897.009z"/><path fill="#46AEE2" d="M52.437 98.918a7.607 7.607 0 01-10.736-10.78l1.89-1.898a.627.627 0 000-.87l-4.93-4.938a.644.644 0 00-.87 0l-1.898 1.899a15.848 15.848 0 1022.352 22.395l12.19-12.138-5.868-5.86-12.13 12.19z"/></g></g></svg>
