<svg width="69" height="69" xmlns="http://www.w3.org/2000/svg"><defs><linearGradient x1="100%" y1="75.92%" x2="0%" y2="24.08%" id="prefix__a"><stop stop-color="#FE3876" offset="0%"/><stop stop-color="#7C30DD" offset="71.445%"/><stop stop-color="#3A30DD" offset="100%"/></linearGradient></defs><g fill="none" fill-rule="evenodd"><circle fill="#FFF" cx="34.112" cy="34.112" r="34.112"/><path d="M52.469 21.455a2.18 2.18 0 012.177 2.181 2.18 2.18 0 01-2.102 2.18l-2.66 4-.029.042a3.264 3.264 0 01-2.636 1.414H43.943c.302.693.534 1.424.688 2.182H51.52c.34-.011.654-.18.851-.456l.02-.03 2.561-3.85a2.18 2.18 0 011.87-3.3A2.18 2.18 0 0159 28a2.18 2.18 0 01-2.137 2.181l-2.66 3.998-.029.043a3.264 3.264 0 01-2.636 1.414H44.85c0 .748-.075 1.477-.218 2.182h6.855c1.075 0 2.08.53 2.688 1.414l.03.044 2.659 3.997A2.18 2.18 0 0159 45.455a2.18 2.18 0 01-2.177 2.181 2.18 2.18 0 01-1.87-3.3l-2.561-3.85a1.088 1.088 0 00-.87-.485L51.485 40h-7.543c-.34.78-.768 1.51-1.27 2.182h4.459c1.075 0 2.08.53 2.688 1.414l.03.043 2.659 3.998a2.18 2.18 0 012.137 2.181A2.18 2.18 0 0152.469 52a2.18 2.18 0 01-1.87-3.3l-2.561-3.85a1.088 1.088 0 00-.87-.486H40.494a10.822 10.822 0 01-6.532 2.181c-2.45 0-4.713-.811-6.532-2.181h-6.598c-.34.011-.654.18-.85.456l-.02.03L17.4 48.7a2.18 2.18 0 01-1.87 3.3 2.18 2.18 0 01-2.177-2.182 2.18 2.18 0 012.137-2.181l2.66-3.998.029-.043a3.264 3.264 0 012.636-1.414h4.438A10.905 10.905 0 0123.984 40h-7.505c-.34.012-.654.18-.851.457l-.02.029-2.561 3.85c.195.327.307.71.307 1.119a2.18 2.18 0 01-2.177 2.181A2.18 2.18 0 019 45.455a2.18 2.18 0 012.137-2.182l2.66-3.997.029-.044a3.264 3.264 0 012.636-1.413H23.295a10.972 10.972 0 01-.217-2.051v-.132h-6.564c-1.075 0-2.08-.53-2.688-1.414l-.03-.043-2.659-3.998A2.18 2.18 0 019 28a2.18 2.18 0 012.177-2.182 2.18 2.18 0 011.87 3.3l2.561 3.85c.195.294.52.475.87.486H23.296c.154-.758.386-1.489.688-2.181h-3.15c-1.074 0-2.08-.53-2.688-1.415l-.03-.043-2.66-3.998a2.18 2.18 0 01-2.1-2.18 2.18 2.18 0 012.176-2.182 2.18 2.18 0 011.853 3.327l2.543 3.823c.196.294.52.474.871.485h4.455a10.861 10.861 0 018.71-4.363c3.561 0 6.723 1.714 8.71 4.364h4.529c.339-.012.654-.18.85-.457l.02-.029 2.544-3.823a2.18 2.18 0 011.853-3.328zm-18.506 5.454c-4.81 0-8.708 3.907-8.708 8.727s3.898 8.728 8.708 8.728c4.81 0 8.709-3.908 8.709-8.728s-3.9-8.727-8.709-8.727zm0 2.182c3.607 0 6.531 2.93 6.531 6.545 0 3.615-2.924 6.546-6.531 6.546-3.607 0-6.531-2.93-6.531-6.546 0-3.615 2.924-6.545 6.531-6.545zM41.583 16h.072a4.36 4.36 0 014.282 4.364c0 2.41-1.95 4.363-4.354 4.363a4.359 4.359 0 01-4.354-4.363c0-1.185.47-2.259 1.235-3.045l.04-.04 3.079 3.085V16zm-15.24 0v4.364l3.079-3.086a4.355 4.355 0 011.275 3.086c0 2.41-1.95 4.363-4.354 4.363a4.359 4.359 0 01-4.354-4.363A4.36 4.36 0 0126.27 16l.072-.001z" fill="url(#prefix__a)"/></g></svg>
