<svg width="1028" height="1028" xmlns="http://www.w3.org/2000/svg"><defs><radialGradient cx="49.997%" cy="50.001%" fx="49.997%" fy="50.001%" r="64.169%" gradientTransform="matrix(.66058 0 0 1 .17 0)" id="prefix__a"><stop stop-color="#FDA649" offset="0%"/><stop stop-color="#FFBC75" offset="50%"/><stop stop-color="#FA8C16" offset="100%"/></radialGradient><radialGradient cx="50.003%" cy="50.005%" fx="50.003%" fy="50.005%" r="56.869%" gradientTransform="matrix(.79417 0 0 1 .103 0)" id="prefix__b"><stop stop-color="#FDA649" offset="0%"/><stop stop-color="#FFBC75" offset="50%"/><stop stop-color="#FA8C16" offset="100%"/></radialGradient></defs><g transform="translate(-.004)" fill-rule="nonzero" fill="none"><circle fill="#FFF" transform="rotate(-90 514 514)" cx="514" cy="514" r="514"/><path d="M16.46 174.959L312.249 4.41a32.944 32.944 0 0132.933 0l186.321 107.426a32.876 32.876 0 016.927 51.693l-63.206 63.385c-10.531 10.575-26.872 12.745-39.805 5.285l-89.89-51.831a33.706 33.706 0 00-33.627 0L0 362V203.434a32.87 32.87 0 0116.46-28.475z" fill="url(#prefix__a)" transform="translate(225.004 158)"/><path d="M532.545 632.654l-187.17 107.93a32.927 32.927 0 01-32.941 0L16.471 569.851A32.909 32.909 0 010 541.345V397.372L152.508 309v144.332a32.92 32.92 0 0016.471 28.507l143.483 82.748a32.927 32.927 0 0032.941 0l90.784-52.358c12.91-7.45 29.219-5.308 39.764 5.222l63.374 63.398a32.906 32.906 0 01-6.78 51.805z" fill="url(#prefix__b)" transform="translate(225.004 158)"/></g></svg>
