<svg width="117" height="117" xmlns="http://www.w3.org/2000/svg"><defs><linearGradient x1="100%" y1="99.149%" x2="0%" y2=".851%" id="prefix__a"><stop stop-color="#FE3876" offset="0%"/><stop stop-color="#7C30DD" offset="71.445%"/><stop stop-color="#3A30DD" offset="100%"/></linearGradient></defs><g transform="translate(0 .5)" fill="none" fill-rule="evenodd"><ellipse fill="url(#prefix__a)" cx="58.5" cy="58" rx="58.5" ry="58"/><path d="M37.796 41.5a3.966 3.966 0 013.959 3.974 3.975 3.975 0 01-2.608 3.737V69.8c2.832-.125 5.465-.646 7.804-1.508V52.507a3.975 3.975 0 01-2.607-3.736 3.966 3.966 0 013.958-3.975 3.966 3.966 0 013.959 3.975 3.975 3.975 0 01-2.608 3.736v14.566c2.601-1.412 4.685-3.322 6.067-5.63A4.63 4.63 0 0154.193 58c0-2.56 2.066-4.634 4.615-4.634.21 0 .415.014.617.042 3.515-6.137 11.052-9.853 20.045-9.947l.35-.002h14.445c.746 0 1.351.607 1.351 1.356 0 .722-.562 1.313-1.271 1.354l-.08.002h-2.589V66.79a3.975 3.975 0 012.608 3.737 3.967 3.967 0 01-3.958 3.974 3.967 3.967 0 01-3.959-3.974 3.975 3.975 0 012.608-3.737V46.17H81.17V66.79a3.975 3.975 0 012.608 3.737A3.967 3.967 0 0179.82 74.5a3.967 3.967 0 01-3.959-3.974 3.975 3.975 0 012.608-3.737V46.2c-2.832.125-5.465.646-7.804 1.508v15.784a3.975 3.975 0 012.607 3.736 3.967 3.967 0 01-3.958 3.975 3.967 3.967 0 01-3.959-3.975 3.975 3.975 0 012.608-3.736V48.927c-2.601 1.412-4.685 3.322-6.067 5.63A4.63 4.63 0 0163.423 58c0 2.559-2.066 4.634-4.615 4.634-.21 0-.415-.014-.617-.042-3.515 6.137-11.052 9.853-20.045 9.947l-.35.002H23.351c-.746 0-1.351-.607-1.351-1.356 0-.722.562-1.313 1.271-1.354l.08-.002h2.589V49.21a3.975 3.975 0 01-2.608-3.737A3.966 3.966 0 0127.29 41.5a3.966 3.966 0 013.959 3.974 3.975 3.975 0 01-2.607 3.737v20.618h7.803V49.21a3.975 3.975 0 01-2.607-3.737 3.966 3.966 0 013.958-3.974z" fill="#FFF"/></g></svg>
