<svg data-name="Layer 1" xmlns="http://www.w3.org/2000/svg" viewBox="0 0 120.11 118.02"><path d="M110.92 35.82a19.29 19.29 0 002-16.2s-2.58-7.68-5.61-2.67a14.07 14.07 0 01-5.56 4.83 55.87 55.87 0 00-83.39 0A14 14 0 0112.8 17c-3-5-5.61 2.67-5.61 2.67a19.31 19.31 0 002 16.2 55.91 55.91 0 10101.74 0z" fill="#706c69"/><path d="M90.93 79.37l-.49-.14.1-27.94V40.9a2.73 2.73 0 011.27-2.07A2.36 2.36 0 0093 36.89v-3.32H72.81L60.05 49.75 47.29 33.57H27.08v3.32a2.36 2.36 0 001.22 1.94 2.73 2.73 0 011.27 2.07v10.39l.1 27.94-.49.14a2.61 2.61 0 00-2.12 2.55v2.53h22.12v-2.73a2.14 2.14 0 00-1.27-2l-1-.48v-21l10.91 13.19a2.68 2.68 0 004.47 0l10.94-13.17v21l-1 .48a2.14 2.14 0 00-1.27 2v2.73H93v-2.55a2.6 2.6 0 00-2.07-2.55z" fill="#fff"/></svg>
