<svg width="309" height="308" fill="none" xmlns="http://www.w3.org/2000/svg"><path d="M254.04 94.1l-50.081 30.076 50.081 30.202 49.959-30.202-49.959-30.075zM53.96 94.1L4 124.177l49.96 30.202 50.08-30.202-50.08-30.075z" fill="#fff"/><path d="M104.041 244.226V304l49.96-30.076V214.15l-49.96 30.076z" fill="#1792FF"/><path d="M104.04 124.538v59.774l-50.081-30.076V94.462l50.081 30.076zM104.04 184.337v59.648l-50.081-29.95v-59.774l50.081 30.076z" fill="#A4D8FF"/><path d="M53.96 154.252v59.774L4 183.95v-59.774l49.96 30.076zM154.001 214.151v59.774l-49.96-29.95v-59.774l49.96 29.95zM203.96 124.302v59.774L154 154V94.227l49.96 30.075zM104.04 64.15v59.775L53.959 93.849V34.075l50.081 30.076z" fill="#A4D8FF"/><path d="M203.96 243.974v59.774L154 273.798v-59.774l49.96 29.95zM104.04 243.974v59.774l-50.081-29.95v-59.774l50.081 29.95z" fill="#A4D8FF"/><path d="M203.959 124.302v59.774L254.04 154V94.227l-50.081 30.075zM203.959 64.15v59.775l50.081-30.076V34.075l-50.081 30.076zM104.041 124.302v59.774L154.001 154V94.227l-49.96 30.075z" fill="#1792FF"/><path d="M203.959 184.076v59.773l50.081-30.075V154l-50.081 30.076zM254.041 154.252v59.774l49.96-30.076v-59.774l-49.96 30.076z" fill="#1792FF"/><path d="M154 214.026V273.8l49.96-29.95v-59.774L154 214.026z" fill="#1792FF"/><path d="M203.959 243.849v59.774l50.081-30.076v-59.774l-50.081 30.076z" fill="#1792FF"/><path d="M104.04 64.287L53.959 94.363l50.081 30.201 49.959-30.201-49.959-30.076zM154.001 34.075l-49.96 30.202 49.96 30.075 49.959-30.075-49.959-30.202zM154.001 154l-49.96 30.076 49.96 30.075 49.959-30.075L154.001 154z" fill="#fff"/><path d="M203.96 4L154 34.076l49.96 30.201 50.08-30.201L203.96 4zM104.04 4L53.959 34.076l50.081 30.201 49.959-30.201L104.04 4z" fill="#fff"/><path d="M203.96 63.9L154 94.1l49.96 30.076 50.08-30.075-50.08-30.202z" fill="#fff"/><path d="M53.96 34.076V94.1L4 124.177v59.773l49.96 30.076V273.8l50.08 29.949L154 273.8l49.959 29.949L254.04 273.8v-59.774L304 183.95v-59.773l-49.96-30.076V34.076L203.959 4 154 34.076 104.04 4 53.96 34.076z" stroke="#001423" stroke-width="8" stroke-miterlimit="10" stroke-linejoin="round"/><path d="M4 124.176l49.96 30.453M104.041 244.228v59.522" stroke="#fff" stroke-width="8" stroke-miterlimit="10" stroke-linecap="round" stroke-linejoin="round"/><path d="M104.041 184.34v59.899M53.959 94.1v119.926M203.959 243.976v-59.9" stroke="#001423" stroke-width="8" stroke-miterlimit="10" stroke-linejoin="round"/><path d="M203.959 303.75v-59.773M304.001 123.924l-49.96 30.453M254.04 34.075l-50.081 30.453M53.959 34.075l50.081 30.453" stroke="#fff" stroke-width="8" stroke-miterlimit="10" stroke-linecap="round" stroke-linejoin="round"/><path d="M254.041 215.401v-119.8M54.082 154.261l49.96 29.95M53.959 214.024l100.04 60.277M253.072 214.024l-99.92 60.277M254.04 154.391l-50.081 29.698M205.653 64.644L154 94.218M154 34.075l103.306 62.039M203.114 183.446l-49.113-29.95v-59.27l-49.96-30.076M153.999 33.95L53.959 94.101M153.996 153.246l-50.322 30.327" stroke="#001423" stroke-width="8" stroke-miterlimit="10" stroke-linejoin="round"/><path d="M53.959 94.1l50.081 30.454v59.648l49.959 29.949v59.648M254.04 94.1l-50.08 30.454v59.648L154 214.151" stroke="#fff" stroke-width="8" stroke-miterlimit="10" stroke-linecap="round" stroke-linejoin="round"/><path d="M104.041 124.567l49.96-30.202 49.959 30.202" stroke="#fff" stroke-width="8" stroke-miterlimit="10" stroke-linecap="round" stroke-linejoin="round"/></svg>
