<svg xmlns="http://www.w3.org/2000/svg" width="65mm" height="65mm" viewBox="0 0 65 65"><path d="M61.496 41.882a.376.376 0 01-.3-.15c-2.42-3.147-11.258-7.89-11.346-7.938a.374.374 0 01-.162-.169l-.5-1.037-1.996-1.419-.883.278a.382.382 0 01-.192.01l-2.542-.542a.376.376 0 01-.298-.344c-.136-1.898-1.249-3.218-1.53-3.52l-1.148-.306a.377.377 0 01-.232-.18l-1.981-3.485-.626-.03a.383.383 0 01-.358-.409c.12-1.452 0-2.6-.37-3.509-.358-.883-.966-1.567-1.862-2.092-1.787-1.05-3.801-3.403-4.2-3.88l-4.059-1.443c-1.918 1.307-2.168 4.205-2.17 4.235v.013l-.376 3.457a.378.378 0 01-.313.334l-1.255.21-.275 1.13a.382.382 0 01-.204.252.386.386 0 01-.326 0c-.44-.21-.914.026-1.161.187.366 1.638.09 2.966-.217 3.804-.354.964-.82 1.514-.838 1.537a.379.379 0 01-.386.119c-.508-.14-.886.151-1.04.3-.084 2.113-.604 3.915-1.545 5.356-.775 1.186-1.835 2.13-3.15 2.802a10.388 10.388 0 01-4.324 1.098c-2.57 2.057-4.351 3.53-5.588 5.073a.378.378 0 01-.533.058.378.378 0 01-.058-.532c1.303-1.626 3.148-3.143 5.81-5.276a.379.379 0 01.246-.083c.02 0 2.077.03 4.129-1.027 1.189-.614 2.145-1.47 2.845-2.545.878-1.352 1.355-3.064 1.418-5.09a.374.374 0 01.08-.223c.029-.035.655-.82 1.652-.696a5.24 5.24 0 00.588-1.166c.404-1.129.446-2.33.123-3.572a.378.378 0 01.114-.376c.038-.033.815-.724 1.731-.573l.24-.984a.382.382 0 01.306-.286l1.216-.202.344-3.167c.007-.089.083-.901.426-1.886.48-1.37 1.26-2.418 2.254-3.026a.38.38 0 01.326-.033l4.334 1.542a.384.384 0 01.166.116c.023.028 2.231 2.711 4.066 3.789 1.043.613 1.757 1.416 2.181 2.461.381.936.528 2.072.45 3.466l.446.022a.38.38 0 01.31.192l2.005 3.529 1.098.293c.063.017.12.05.166.093.066.063 1.525 1.507 1.795 3.791l2.173.462.967-.303a.381.381 0 01.333.053l2.229 1.583a.371.371 0 01.12.144l.488 1.014a92.317 92.317 0 014.71 2.756c3.428 2.154 5.707 3.946 6.77 5.329a.378.378 0 01-.069.53.428.428 0 01-.242.08z" fill="#010101" stroke="#000" stroke-width="3.1135306799999998"/><path d="M16.36 41.91a.38.38 0 01-.257-.657l2.158-1.999c.018-1.078.217-2.062.594-2.928a6.108 6.108 0 011.322-1.938 5.774 5.774 0 011.787-1.21l4.882-11.133a.385.385 0 01.159-.177l1.645-.939-.969-2.13a.387.387 0 01-.033-.192c.32-3.367-1.128-7.135-1.143-7.173a.378.378 0 01.704-.275c.015.04.389 1.002.725 2.41.305 1.28.63 3.18.477 5.008l1.07 2.352c.08.18.012.39-.157.485l-1.835 1.05-4.894 11.164a.385.385 0 01-.23.21c-.007.002-.853.287-1.68 1.115a5.374 5.374 0 00-1.144 1.696c-.348.81-.522 1.744-.522 2.772a.372.372 0 01-.122.277l-2.276 2.11a.388.388 0 01-.26.101z" fill="#010101" stroke="#000" stroke-width="3.1135306799999998"/><path d="M2.435 47.812H62.28M2.719 54.08h59.846" fill="none" stroke="#000" stroke-width="3.113613" stroke-linecap="round"/><g fill="#000091"><path d="M36.441 31.224a3.828 3.85 0 01-3.817 3.85 3.828 3.85 0 01-3.839-3.828 3.828 3.85 0 013.795-3.872 3.828 3.85 0 013.86 3.806" opacity=".8"/><path d="M34.527 36.944a1.914 1.914 0 01-1.908 1.913 1.914 1.914 0 01-1.92-1.902 1.914 1.914 0 011.898-1.925 1.914 1.914 0 011.93 1.892" opacity=".8"/><path d="M34.527 40.771a1.914 1.914 0 01-1.908 1.914 1.914 1.914 0 01-1.92-1.903 1.914 1.914 0 011.898-1.924 1.914 1.914 0 011.93 1.892" opacity=".8"/></g></svg>
