<svg id="prefix__图层_1" data-name="图层 1" xmlns="http://www.w3.org/2000/svg" viewBox="0 0 24 24"><defs><style>.prefix__cls-2{stroke:#000072;stroke-miterlimit:10;stroke-width:.42px;fill:#0ff;stroke-linecap:round}.prefix__cls-7{fill:#fff}.prefix__cls-5{fill:#000072}</style></defs><rect x="3.7" y="4.1" width="11.5" height="15.71" rx="1.3" transform="rotate(-30 9.406 11.92)" stroke="#000072" stroke-miterlimit="10" stroke-width=".42" fill="red"/><path class="prefix__cls-2" d="M4.5 11.6l6.6-3.8M5.9 14l6.5-3.8M7.2 16.4l6.6-3.8"/><rect x="7.1" y="3.7" width="13.1" height="16.66" rx="1.3" transform="rotate(-30 13.575 12.037)" fill="#fff" stroke="#000072" stroke-miterlimit="10" stroke-width=".42"/><circle cx="20.4" cy="15.3" r=".8" fill="#ff1e97"/><path class="prefix__cls-5" d="M19.8 11.1c-.1-.9-1.6-1.1-2.9-1.2h-.1a3.6 3.6 0 00-2.3-1.4 3.8 3.8 0 00-4.5 2.6h-.1c-1.1.4-2.4 1.2-2.3 2.1s.7.9 1.6 1l1.1.2a4.5 4.5 0 002.7 1.9 4 4 0 004.7-3.1c1.1-.6 2.3-1.2 2.1-2.1zm-6.6 4.5a3.7 3.7 0 01-2-1.2l2.9-.3 2.8-.7a3.3 3.3 0 01-3.7 2.2zm4.6-3.3l-.5.2H17l-3.1.8a19.5 19.5 0 01-3.2.2h-.8c-1-.1-1.5-.4-1.5-.5s.3-.6 1.4-1.1a3.7 3.7 0 00.1 1.5h.8a3.7 3.7 0 01-.2-1.8 3.3 3.3 0 013.9-2.5 3.1 3.1 0 012.6 3.4h.2l.6-.3a8.3 8.3 0 00-.4-1.5l-.3-.4.3.4c1.2.1 1.7.4 1.7.5s-.3.6-1.3 1.1z"/><ellipse cx="14.4" cy="14.6" rx=".9" ry=".4" transform="rotate(-11.7 14.266 14.776)" fill="red"/><circle class="prefix__cls-5" cx="8.4" cy="8.9" r="1.4"/><circle class="prefix__cls-7" cx="7.7" cy="8.2" r=".3"/><circle class="prefix__cls-7" cx="9.2" cy="8.4" r=".2"/><circle class="prefix__cls-7" cx="8.4" cy="8.9" r=".2"/><circle class="prefix__cls-7" cx="8" cy="10.1" r=".1"/><circle class="prefix__cls-7" cx="7.2" cy="8.9" r=".1"/><circle class="prefix__cls-7" cx="8.8" cy="9.6" r=".1"/></svg>
