<svg id="prefix__b631e469-f95c-435a-8050-4660d30e5f0d" data-name="Ebene 1" xmlns="http://www.w3.org/2000/svg" viewBox="0 0 425.2 425.2"><defs><style>.prefix__f1301782-fcbe-49da-ad88-38f6e3df6fdb{fill:#8c175b}.prefix__e18751f2-9f7c-4405-8ca8-b107ef34ab17{fill:#ea5b2a}</style></defs><circle cx="212.6" cy="212.6" r="212.6" fill="#fff"/><path class="prefix__f1301782-fcbe-49da-ad88-38f6e3df6fdb" d="M176.33 205.26s-33.92 35.63-24 46.47l74.39 82a3.89 3.89 0 002.89 1.28h55.65a3.92 3.92 0 002.9-6.54zM248.87 219.9s33.92-35.62 24-46.46l-74.39-82a3.91 3.91 0 00-2.9-1.28H140a3.91 3.91 0 00-2.89 6.62z"/><path class="prefix__e18751f2-9f7c-4405-8ca8-b107ef34ab17" d="M248.87 219.9s33.92-35.62 24-46.46c24.33 26.68 35.46 39.07 39.84 43.87a3.89 3.89 0 010 5.2L183.83 369.78a3.88 3.88 0 01-2.94 1.33h-55.81a3.9 3.9 0 01-2.94-6.48zM176.33 205.26s-33.92 35.63-24 46.47c-24.34-26.68-35.47-39.07-39.84-43.87a3.89 3.89 0 010-5.2l129-147.24a3.9 3.9 0 012.94-1.34h55.81a3.91 3.91 0 012.94 6.49z"/></svg>
