<svg xmlns="http://www.w3.org/2000/svg" viewBox="0 0 132.292 132.292" height="500" width="500"><path d="M132.292 66.146a66.146 66.146 0 01-66.146 66.146A66.146 66.146 0 010 66.146 66.146 66.146 0 0166.146 0a66.146 66.146 0 0166.146 66.146z" fill="#231f20"/><path d="M100.327 32.77l-29.715 9.724a17.521 17.521 0 00-10.173 8.717L46.807 78.047a10.908 10.908 0 01-4.345 4.55l-12.84 7.278a6.104 6.104 0 00-3.094 5.31 4.545 4.545 0 007.051 3.791l15.514-10.262a11.795 11.795 0 004.03-4.54l13.041-25.938a17.656 17.656 0 0110.545-8.933l25.61-7.943a4.894 4.894 0 003.445-4.675 4.137 4.137 0 00-5.437-3.914zm-73.8 18.732a3.914 3.914 0 004.43 3.319h5.795a6.81 6.81 0 014.97 2.153l6.699 7.147 4.066-7.557-5.955-7.118a6.624 6.624 0 00-5.08-2.374H30.957a4.43 4.43 0 00-4.43 4.43zm38.359 19.593l-3.875 7.749 10.857 13.171a12.251 12.251 0 009.453 4.46h21.072a3.37 3.37 0 003.371-3.372 3.874 3.874 0 00-3.948-3.798H84.428a10.088 10.088 0 01-7.843-3.744z" fill="#fff"/></svg>
