<svg xmlns="http://www.w3.org/2000/svg" viewBox="0 0 100 100"><circle cx="50" cy="50" r="48.5" fill="#fff"/><path d="M47.5 51.4h4.6v-2.9l-4.5-.1z"/><path d="M79.5 27.5c-4.2-4.3-10.4-6.5-18-6.5-5 0-7.9 1.5-10.4 4.4-2.5 3-3.1 6.9-3.1 9.6l-.1 7.8 4.3.1.1-7.8c0-2 .7-3.9 1.8-5.4 1.2-1.5 2.8-2.3 4.6-2.3h.1c2.1 0 3.7.5 4.7 1.4 1.2.9 1.8 2.4 1.7 4.3 0 1.9-.8 3.7-2.2 5-1.4 1.4-3.2 2.1-5.2 2l-4.2-.1v2.7l4.2.1h.2c5.4 0 9.8-4.3 9.9-9.7 0-1.3-.2-2.6-.7-3.8L67 29l.3.4c1.4 1.7 2.1 3.9 2.1 6.1-.1 5-4.2 9.1-9.4 9.1h-.2l-7.8-.1-4.4-.1-12.1-.2h-.3c-4.2 0-8.2 1.6-11.3 4.5-3.2 3-4.9 7-4.9 11.5 0 2.5.4 4.9 1.6 7.2l-.1.1c-2-2.7-3-6-2.9-9.5.1-4.2 1.8-8.1 4.8-11s6.9-4.5 11.1-4.4l12.7.2v-2.7l-12.7-.2h-.3c-4.8 0-9.3 1.8-12.7 5.2-3.6 3.4-5.6 8-5.7 12.9-.1 6.1 1.8 11.5 5.4 15.1 3.9 4 9.6 6 16.9 6 4.9 0 8.7-1.5 11.4-4.5 2-2.4 3.2-5.8 3.3-9.5l.1-7.8-4.3-.1-.1 7.8c0 2-.7 3.9-1.8 5.4-1.3 1.6-2.8 2.3-4.7 2.3-2.1 0-3.7-.5-4.7-1.4-1.2-.9-1.8-2.4-1.7-4.3.1-3.9 3.3-7 7.2-7H46v-2.7l-4.2-.1h-.2c-5.4 0-9.8 4.3-9.9 9.7 0 1.3.2 2.6.7 3.8l.2.4-.3-.4c-1.4-1.7-2.1-3.9-2.1-6.1.1-5 4.2-9.1 9.4-9.1h.2l7.8.1 4.4.1 12.1.2h.3c8.8 0 16.1-7.2 16.3-16 0-2.5-.4-4.9-1.6-7.2l.1-.1c2 2.7 3 6 2.9 9.5-.1 4.2-1.8 8.1-4.8 11-3 2.9-7 4.5-11.1 4.4l-12.7-.2V60l12.7.2h.3c4.8 0 9.7-1.9 13.4-5.2 4-3.5 5.2-8.1 5.3-12.9 0-5.6-2-10.9-5.7-14.6zM64.3 53.1h-.2L52 52.9l-4.4-.1-7.8-.1h-.2c-3.2 0-6.1 1.2-8.3 3.4-2.3 2.2-3.6 5.3-3.7 8.4 0 1.7.3 3.4.9 4.9l.2.5-.4-.5c-1.6-2.1-2.4-4.5-2.4-7.2C26 56 31.2 51 37.4 51h.2l8.4.1v-2.7l-8.4-.1h-.2c-7.7 0-14 6.2-14.1 13.9 0 2.1.4 4.1 1.3 6.1l.3.6-.4-.6c-1.8-2.4-2.7-5.3-2.6-8.3.1-7.4 6.2-13.4 13.6-13.4h.2l12.2.2 4.3.1h.1l7.7.1h.2c3.2 0 6.1-1.2 8.3-3.4 2.3-2.2 3.6-5.3 3.7-8.4 0-1.7-.3-3.4-.9-4.9l-.3-.5.4.5c1.6 2.1 2.4 4.5 2.4 7.2 0 3-1.3 5.9-3.5 8-2.1 2.1-4.9 3.3-8 3.3h-.2l-8.4-.1v2.7l8.4.1h.2c3.7 0 7.2-1.4 9.8-4 2.7-2.6 4.2-6.1 4.3-9.9 0-2.1-.4-4.1-1.3-6.1l-.3-.6.4.6c1.8 2.4 2.7 5.3 2.6 8.3 0 7.3-6.1 13.3-13.5 13.3z"/></svg>
