<svg id="prefix__Layer_1" data-name="Layer 1" xmlns="http://www.w3.org/2000/svg" viewBox="0 0 436.22 436.22"><defs><clipPath id="prefix__clip-path" transform="translate(-782.01 -781.74)"><circle cx="1001.02" cy="1001.98" r="215.98" fill="none"/></clipPath><style>.prefix__cls-4{fill:#4d4d4d}</style></defs><g clip-path="url(#prefix__clip-path)"><path transform="rotate(-90 218.245 999.985)" fill="#f2f2f2" d="M782.01 781.74h436.22v436.22H782.01z"/><circle class="prefix__cls-4" cx="84.89" cy="298" r="22.44"/><circle class="prefix__cls-4" cx="84.89" cy="222.44" r="22.44"/><circle class="prefix__cls-4" cx="84.89" cy="146.89" r="22.44"/><circle class="prefix__cls-4" cx="153.81" cy="334.98" r="22.44"/><circle class="prefix__cls-4" cx="153.81" cy="259.43" r="22.44"/><circle class="prefix__cls-4" cx="153.81" cy="183.88" r="22.44"/><circle class="prefix__cls-4" cx="153.81" cy="108.33" r="22.44"/><circle class="prefix__cls-4" cx="220.2" cy="373.55" r="22.44"/><circle class="prefix__cls-4" cx="220.2" cy="298" r="22.44"/><circle cx="220.2" cy="222.44" r="22.44" fill="#d64ca8"/><circle class="prefix__cls-4" cx="220.2" cy="146.89" r="22.44"/><circle class="prefix__cls-4" cx="220.2" cy="71.34" r="22.44"/><circle class="prefix__cls-4" cx="289.12" cy="334.98" r="22.44"/><circle class="prefix__cls-4" cx="289.12" cy="259.43" r="22.44"/><circle class="prefix__cls-4" cx="289.12" cy="183.88" r="22.44"/><circle class="prefix__cls-4" cx="289.12" cy="108.33" r="22.44"/><circle class="prefix__cls-4" cx="355.5" cy="298" r="22.44"/><circle class="prefix__cls-4" cx="355.5" cy="222.44" r="22.44"/><circle class="prefix__cls-4" cx="355.5" cy="146.89" r="22.44"/></g></svg>
