<svg data-name="Layer 1" xmlns="http://www.w3.org/2000/svg" xmlns:xlink="http://www.w3.org/1999/xlink" viewBox="0 0 1024 1024"><defs><linearGradient id="prefix__b" x1="861.35" y1="355.1" x2="713.31" y2="823.9" gradientUnits="userSpaceOnUse"><stop offset=".08" stop-color="#62dfff"/><stop offset="1" stop-color="#97ecff"/></linearGradient><linearGradient id="prefix__a" x1="58.51" y1="48.21" x2="288.79" y2="689.72" gradientUnits="userSpaceOnUse"><stop offset=".03" stop-color="#6e17e8"/><stop offset="1" stop-color="#9500ff"/></linearGradient><linearGradient id="prefix__c" x1="326.2" y1="294.51" x2="326.2" y2="672.84" xlink:href="#prefix__a"/><linearGradient id="prefix__d" x1="633.85" y1="-116.96" x2="781.9" y2="541" gradientUnits="userSpaceOnUse"><stop offset=".08" stop-color="#6e17e8"/><stop offset="1" stop-color="#62dfff"/></linearGradient></defs><path fill="url(#prefix__b)" d="M992.1 512L844.95 768l-147.14 256-147.14-256 147.14-256 147.14-256L992.1 512z"/><path fill="url(#prefix__a)" d="M326.2 384.02L179.06 128.03 31.91 384.02 179.06 640 326.2 384.02z"/><path fill="url(#prefix__c)" d="M473.36 640L326.2 384.02 179.06 640 326.2 895.99 473.36 640z"/><path fill="#9500ff" d="M543.09 518.7l-69.74 121.31-147.14-256 69.74-121.31 147.14 256z"/><path fill="url(#prefix__d)" d="M992.1 0L844.95 256 697.81 512 550.67 256l53.18-92.53H421.83l.2-.32L328.24 0H992.1z"/></svg>
