<svg width="121" height="121" fill="none" xmlns="http://www.w3.org/2000/svg"><circle cx="60" cy="60.766" fill="#fff" r="60"/><path d="M23.324 60.917v-9.85h31.754V40.931H23.324v-9.85h73.358v9.85h-31.75v10.135h31.75v9.85h-31.75l31.878 47.469c14.114-10.976 23.194-28.119 23.194-47.383C120.004 27.862 93.14 1 60.001 1 26.865 1.001 0 27.863 0 61.002c0 19.264 9.079 36.407 23.194 47.383l31.883-47.468H23.324z" fill="#E3232C"/><path d="M31.434 113.778C39.93 118.383 49.661 121 60.002 121c10.342 0 20.072-2.619 28.568-7.222L60.002 71.224l-28.568 42.554z" fill="#E3232C"/></svg>
