<svg xmlns="http://www.w3.org/2000/svg" viewBox="0 0 30.5 29.9"><path d="M15.3 0C6.8 0 0 6.8 0 15.3 0 22 4.3 27.8 10.6 29.9c.3.1.6 0 .8-.1l.2-.1c1-.4 1.7-1.4 1.7-2.5v-9.5H10c-1 0-1.8-.8-1.8-1.8s1-1.9 2-1.9h10.2c1 0 1.8.8 1.8 1.8s-.8 1.8-1.8 1.8h-3.3v9.5c0 1.2.7 2.2 1.8 2.5.2.1.4.1.5.1h.3c8-2.6 12.5-11.2 9.9-19.2C27.8 4.3 21.9 0 15.3 0zM4.5 17.7c-1 0-1.8-.8-1.8-1.8S3.5 14 4.5 14s1.8.8 1.8 1.8c0 1.1-.8 1.9-1.8 1.9zM15.3 11c-2 0-3.6-1.6-3.6-3.6s1.6-3.6 3.6-3.6 3.6 1.6 3.6 3.6-1.6 3.6-3.6 3.6zm10.8 6.7c-1 0-1.8-.8-1.8-1.8s.8-1.8 1.8-1.8 1.8.8 1.8 1.8-.8 1.8-1.8 1.8z"/></svg>
