<svg width="512" height="512" xmlns="http://www.w3.org/2000/svg"><defs><linearGradient x1="0%" y1="23.393%" x2="100%" y2="72.024%" id="prefix__a"><stop stop-color="#333" offset="0%"/><stop stop-color="#393939" offset="100%"/></linearGradient></defs><g fill="none" fill-rule="evenodd"><path fill="url(#prefix__a)" d="M0 0h512v512H0z"/><path d="M315.212 361.328l-57.096 32.874a8.689 8.689 0 01-8.667 0l-108.978-62.75a10.196 10.196 0 01-5.115-8.838V195.417a5.71 5.71 0 012.864-4.948l60.65-34.925c1.475-.847 3.317.214 3.317 1.911v131.026a6.796 6.796 0 003.41 5.894l109.615 63.117c1.48.853 1.48 2.982 0 3.836zM420 175.178a23.887 23.887 0 00-11.958-20.693l-140-80.762a24.09 24.09 0 00-24.077 0l-140.007 80.762A23.89 23.89 0 0092 175.178v161.62a23.89 23.89 0 0011.958 20.692l140.086 80.81a23.94 23.94 0 0023.915 0l140.083-80.81A23.89 23.89 0 00420 336.797V175.178z" fill="#FFF"/></g></svg>
