<svg id="prefix__Layer_1" data-name="Layer 1" xmlns="http://www.w3.org/2000/svg" viewBox="0 0 50 50"><defs><style>.prefix__cls-2{fill:#fff}</style></defs><circle cx="25" cy="25" r="25" fill="#22b"/><path class="prefix__cls-2" d="M14.77 15.26v1.51a2.52 2.52 0 012.46-1.51h1.36v1.91h-1.7c-1.51 0-2.09.71-2.09 2.45v2.76H18v1.79h-7.8v-1.79h2.22v-5.31H10.2v-1.81zM25 24.39c-2.19 0-4.26-1.26-4.26-4.67s2.07-4.65 4.26-4.65 4.25 1.24 4.25 4.65-2.08 4.67-4.25 4.67zm0-7.57c-1.14 0-1.87.85-1.87 2.9s.73 2.91 1.87 2.91 1.87-.86 1.87-2.91-.73-2.9-1.87-2.9zM39.62 18.48h-2.25c-.14-.95-.58-1.66-1.64-1.66S34 17.73 34 19.73s.66 2.9 1.72 2.9c.73 0 1.47-.36 1.69-1.72h2.29a3.87 3.87 0 01-4 3.48c-2.59 0-4.07-2-4.07-4.66s1.51-4.66 4.12-4.66a3.74 3.74 0 013.87 3.41zM14.31 36.5c-2.19 0-4.26-1.26-4.26-4.67s2.07-4.65 4.26-4.65 4.25 1.24 4.25 4.65-2.09 4.67-4.25 4.67zm0-7.57c-1.15 0-1.88.85-1.88 2.9s.73 2.91 1.88 2.91 1.87-.86 1.87-2.91-.73-2.9-1.87-2.9zM28.92 30.59h-2.25c-.13-.95-.58-1.66-1.64-1.66s-1.72.91-1.72 2.92.69 2.89 1.69 2.89c.73 0 1.48-.36 1.69-1.72H29a3.88 3.88 0 01-4 3.48c-2.6 0-4.07-2-4.07-4.65s1.5-4.67 4.12-4.67a3.72 3.72 0 013.87 3.41zM35.69 36.5c-2.18 0-4.25-1.26-4.25-4.67s2.07-4.65 4.25-4.65S40 28.42 40 31.83s-2.14 4.67-4.31 4.67zm0-7.57c-1.14 0-1.87.85-1.87 2.9s.73 2.91 1.87 2.91 1.88-.86 1.88-2.91-.73-2.9-1.88-2.9z"/></svg>
